HIERARCHY
ROOT SpineBase
{
  OFFSET 0.000000 0.000000 0.000000
  CHANNELS 6 Xposition Yposition Zposition Zrotation Xrotation Yrotation
  JOINT SpineMid
  {
    OFFSET -0.000000 33.862352 0.000000
    CHANNELS 3 Zrotation Xrotation Yrotation
    JOINT SpineShoulder
    {
      OFFSET -0.030471 25.082511 -1.015285
      CHANNELS 3 Zrotation Xrotation Yrotation
      JOINT Neck
      {
        OFFSET -0.051031 8.291854 -0.740735
        CHANNELS 3 Zrotation Xrotation Yrotation
        JOINT Head
        {
          OFFSET 1.407147 13.371313 2.146862
          CHANNELS 3 Zrotation Xrotation Yrotation
          End Site
          {
            OFFSET 0 0 0
          }
        }
      }
      JOINT ShoulderLeft
      {
        OFFSET -13.435599 -5.359526 -9.809182
        CHANNELS 3 Zrotation Xrotation Yrotation
        JOINT ElbowLeft
        {
          OFFSET -14.992994 -17.207793 -9.300589
          CHANNELS 3 Zrotation Xrotation Yrotation
          JOINT WristLeft
          {
            OFFSET 4.652607 -20.743209 4.983271
            CHANNELS 3 Zrotation Xrotation Yrotation
            JOINT HandLeft
            {
              OFFSET 2.076049 -3.095420 3.472440
              CHANNELS 3 Zrotation Xrotation Yrotation
              JOINT HandTipLeft
              {
                OFFSET 2.919515 -5.620973 2.109039
                CHANNELS 3 Zrotation Xrotation Yrotation
                End Site
                {
                  OFFSET 0 0 0
                }
              }
              JOINT ThumbLeft
              {
                OFFSET 4.373535 3.974513 0.944919
                CHANNELS 3 Zrotation Xrotation Yrotation
                End Site
                {
                  OFFSET 0 0 0
                }
              }
            }
          }
        }
      }
      JOINT ShoulderRight
      {
        OFFSET 13.262015 -6.953443 -0.412861
        CHANNELS 3 Zrotation Xrotation Yrotation
        JOINT ElbowRight
        {
          OFFSET 3.644153 -24.260296 5.121899
          CHANNELS 3 Zrotation Xrotation Yrotation
          JOINT WristRight
          {
            OFFSET 0.201490 -21.874261 2.135427
            CHANNELS 3 Zrotation Xrotation Yrotation
            JOINT HandRight
            {
              OFFSET 0.135627 -7.396961 1.126871
              CHANNELS 3 Zrotation Xrotation Yrotation
              JOINT HandTipRight
              {
                OFFSET -0.120933 -2.028705 -1.514208
                CHANNELS 3 Zrotation Xrotation Yrotation
                End Site
                {
                  OFFSET 0 0 0
                }
              }
              JOINT ThumbRight
              {
                OFFSET -0.424054 1.690057 -2.160625
                CHANNELS 3 Zrotation Xrotation Yrotation
                End Site
                {
                  OFFSET 0 0 0
                }
              }
            }
          }
        }
      }
    }
  }
  JOINT HipLeft
  {
    OFFSET -6.238789 1.628670 -5.340279
    CHANNELS 3 Zrotation Xrotation Yrotation
    JOINT KneeLeft
    {
      OFFSET -1.525424 -36.143553 -5.382611
      CHANNELS 3 Zrotation Xrotation Yrotation
      JOINT AnkleLeft
      {
        OFFSET 1.460873 -36.088787 -4.386091
        CHANNELS 3 Zrotation Xrotation Yrotation
        JOINT FootLeft
        {
          OFFSET 3.102604 -2.330034 -12.745938
          CHANNELS 3 Zrotation Xrotation Yrotation
          End Site
          {
            OFFSET 0 0 0
          }
        }
      }
    }
  }
  JOINT HipRight
  {
    OFFSET 5.440308 1.115648 -2.102567
    CHANNELS 3 Zrotation Xrotation Yrotation
    JOINT KneeRight
    {
      OFFSET 4.488522 -39.650081 0.659011
      CHANNELS 3 Zrotation Xrotation Yrotation
      JOINT AnkleRight
      {
        OFFSET 1.981841 -32.869777 0.340058
        CHANNELS 3 Zrotation Xrotation Yrotation
        JOINT FootRight
        {
          OFFSET 2.891824 -2.414730 -12.776773
          CHANNELS 3 Zrotation Xrotation Yrotation
          End Site
          {
            OFFSET 0 0 0
          }
        }
      }
    }
  }
}
MOTION
Frames: 13
Frame Time: 0.033333
27.644785 75.796847 265.881412 0.198404 0.561249 -16.347788 0.164434 0.328290 16.366277 0.022304 0.269089 0.028747 -0.190498 2.173207 -0.443466 0.000000 0.000000 0.000000 -0.548687 -0.207062 -0.785535 -1.299699 -2.613695 -0.031205 3.962258 8.490085 8.341784 -9.682519 0.320824 -8.053329 0.000000 0.000000 0.000000 0.000000 0.000000 0.000000 -0.471787 -1.098672 -0.053387 -0.000000 0.000000 0.000000 -0.000000 0.000000 0.000000 -0.000000 0.000000 0.000000 0.000000 0.000000 0.000000 0.000000 0.000000 0.000000 -0.032414 -0.594401 16.346648 -0.000000 0.000000 0.000000 -0.000000 0.000000 0.000000 0.000000 0.000000 0.000000 -0.032414 -0.594401 16.346648 -0.000000 0.000000 0.000000 -0.000000 0.000000 0.000000 0.000000 0.000000 0.000000
27.605866 75.824005 265.837285 0.171072 0.621130 -16.232299 0.182596 0.312587 16.250546 0.021143 0.267919 0.028152 -0.071228 2.460734 -0.494667 0.000000 0.000000 0.000000 -0.562852 -0.196311 -0.811335 -1.159888 -2.970132 -0.048920 4.805742 9.361962 9.771717 -9.843855 1.301385 -8.616187 0.000000 0.000000 0.000000 0.000000 0.000000 0.000000 -0.455817 -1.137754 -0.052203 -0.000000 0.000000 0.000000 -0.000000 0.000000 0.000000 -0.000000 0.000000 0.000000 0.000000 0.000000 0.000000 0.000000 0.000000 0.000000 0.009370 -0.644189 16.231424 -0.000000 0.000000 0.000000 -0.000000 0.000000 0.000000 0.000000 0.000000 0.000000 0.009370 -0.644189 16.231424 -0.000000 0.000000 0.000000 -0.000000 0.000000 0.000000 0.000000 0.000000 0.000000
27.570861 75.846434 265.795902 0.144899 0.674322 -16.122914 0.195637 0.297876 16.140781 0.019310 0.266386 0.027312 0.083925 2.815017 -0.558148 0.000000 0.000000 0.000000 -0.522877 -0.197422 -0.849100 -1.148841 -2.783851 0.049849 4.926735 8.849513 9.652299 -9.361282 1.757370 -8.122762 0.000000 0.000000 0.000000 0.000000 0.000000 0.000000 -0.435782 -1.172187 -0.050557 -0.000000 0.000000 0.000000 -0.000000 0.000000 0.000000 -0.000000 0.000000 0.000000 0.000000 0.000000 0.000000 0.000000 0.000000 0.000000 0.048058 -0.688038 16.122350 -0.000000 0.000000 0.000000 -0.000000 0.000000 0.000000 0.000000 0.000000 0.000000 0.048058 -0.688038 16.122350 -0.000000 0.000000 0.000000 -0.000000 0.000000 0.000000 0.000000 0.000000 0.000000
27.543007 75.867568 265.766194 0.125191 0.725239 -16.097125 0.198295 0.293187 16.114531 0.015250 0.268571 0.026302 0.216781 3.051718 -0.606270 0.000000 0.000000 0.000000 -0.464015 -0.224078 -0.885097 -1.226934 -2.089886 0.245606 3.938396 6.249153 7.053601 -7.733441 2.086572 -5.566454 0.000000 0.000000 0.000000 0.000000 0.000000 0.000000 -0.413170 -1.220197 -0.048774 -0.000000 0.000000 0.000000 -0.000000 0.000000 0.000000 -0.000000 0.000000 0.000000 0.000000 0.000000 0.000000 0.000000 0.000000 0.000000 0.080803 -0.731515 16.096849 -0.000000 0.000000 0.000000 -0.000000 0.000000 0.000000 0.000000 0.000000 0.000000 0.080803 -0.731515 16.096849 -0.000000 0.000000 0.000000 -0.000000 0.000000 0.000000 0.000000 0.000000 0.000000
27.528871 75.881344 265.755806 0.116048 0.771323 -16.099504 0.188888 0.301169 16.116425 0.009575 0.272618 0.025313 0.380840 3.261968 -0.658941 0.000000 0.000000 0.000000 -0.424753 -0.294794 -0.884081 -1.296478 -1.354478 0.405857 2.010524 4.353931 3.947293 -4.480751 1.457193 -2.415374 0.000000 0.000000 0.000000 0.000000 0.000000 0.000000 -0.391554 -1.280620 -0.047190 -0.000000 0.000000 0.000000 -0.000000 0.000000 0.000000 -0.000000 0.000000 0.000000 0.000000 0.000000 0.000000 0.000000 0.000000 0.000000 0.102398 -0.773253 16.099414 -0.000000 0.000000 0.000000 -0.000000 0.000000 0.000000 0.000000 0.000000 0.000000 0.102398 -0.773253 16.099414 -0.000000 0.000000 0.000000 -0.000000 0.000000 0.000000 0.000000 0.000000 0.000000
27.526448 75.889149 265.759085 0.114153 0.806678 -16.146945 0.169623 0.315625 16.163250 0.002975 0.277403 0.024214 0.590887 3.573298 -0.731053 0.000000 0.000000 0.000000 -0.422609 -0.382672 -0.846728 -1.345805 -0.526505 0.544447 -0.275740 2.207732 0.172042 -1.462392 -0.662529 -0.097183 0.000000 0.000000 0.000000 0.000000 0.000000 0.000000 -0.368778 -1.339812 -0.045456 -0.000000 0.000000 0.000000 -0.000000 0.000000 0.000000 -0.000000 0.000000 0.000000 0.000000 0.000000 0.000000 0.000000 0.000000 0.000000 0.114693 -0.806602 16.146949 -0.000000 0.000000 0.000000 -0.000000 0.000000 0.000000 0.000000 0.000000 0.000000 0.114693 -0.806602 16.146949 -0.000000 0.000000 0.000000 -0.000000 0.000000 0.000000 0.000000 0.000000 0.000000
27.536316 75.886831 265.785445 0.119359 0.827702 -16.175828 0.148798 0.338880 16.191739 -0.006303 0.287549 0.023212 0.786358 3.784243 -0.791383 0.000000 0.000000 0.000000 -0.428667 -0.465461 -0.812813 -1.481486 0.265565 0.657880 -2.909400 -0.077953 -4.339778 2.514333 -1.690088 3.221053 0.000000 0.000000 0.000000 0.000000 0.000000 0.000000 -0.351325 -1.399009 -0.044237 -0.000000 0.000000 0.000000 -0.000000 0.000000 0.000000 -0.000000 0.000000 0.000000 0.000000 0.000000 0.000000 0.000000 0.000000 0.000000 0.115956 -0.828186 16.175804 -0.000000 0.000000 0.000000 -0.000000 0.000000 0.000000 0.000000 0.000000 0.000000 0.115956 -0.828186 16.175804 -0.000000 0.000000 0.000000 -0.000000 0.000000 0.000000 0.000000 0.000000 0.000000
27.537388 75.896198 265.800976 0.118621 0.859796 -16.226148 0.136210 0.345375 16.241659 -0.010533 0.288983 0.022512 0.923225 3.974291 -0.838123 0.000000 0.000000 0.000000 -0.432915 -0.561566 -0.755901 -1.609774 0.954611 0.721953 -4.086733 -2.166828 -7.090710 4.764128 -2.712664 4.477629 0.000000 0.000000 0.000000 0.000000 0.000000 0.000000 -0.336338 -1.442098 -0.043107 -0.000000 0.000000 0.000000 -0.000000 0.000000 0.000000 -0.000000 0.000000 0.000000 0.000000 0.000000 0.000000 0.000000 0.000000 0.000000 0.126361 -0.858693 16.226205 -0.000000 0.000000 0.000000 -0.000000 0.000000 0.000000 0.000000 0.000000 0.000000 0.126361 -0.858693 16.226205 -0.000000 0.000000 0.000000 -0.000000 0.000000 0.000000 0.000000 0.000000 0.000000
27.538675 75.903122 265.817475 0.119297 0.892122 -16.256195 0.121465 0.355420 16.271292 -0.015422 0.293296 0.021787 1.054320 3.995967 -0.865252 0.000000 0.000000 0.000000 -0.459176 -0.606599 -0.737539 -1.784636 1.430351 0.770400 -3.859902 -4.272983 -8.227718 5.773059 -2.243068 5.075187 0.000000 0.000000 0.000000 0.000000 0.000000 0.000000 -0.320944 -1.492405 -0.041988 -0.000000 0.000000 0.000000 -0.000000 0.000000 0.000000 -0.000000 0.000000 0.000000 0.000000 0.000000 0.000000 0.000000 0.000000 0.000000 0.135212 -0.889849 16.256316 -0.000000 0.000000 0.000000 -0.000000 0.000000 0.000000 0.000000 0.000000 0.000000 0.135212 -0.889849 16.256316 -0.000000 0.000000 0.000000 -0.000000 0.000000 0.000000 0.000000 0.000000 0.000000
27.539194 75.908922 265.835360 0.123171 0.926980 -16.264960 0.107323 0.370404 16.279823 -0.019852 0.298670 0.021376 1.138006 3.959053 -0.879268 0.000000 0.000000 0.000000 -0.476662 -0.680136 -0.709951 -1.801911 1.425442 0.727540 -6.372333 -3.821203 -11.152168 11.206005 -3.960049 7.469345 0.000000 0.000000 0.000000 0.000000 0.000000 0.000000 -0.311080 -1.550959 -0.041497 -0.000000 0.000000 0.000000 -0.000000 0.000000 0.000000 -0.000000 0.000000 0.000000 0.000000 0.000000 0.000000 0.000000 0.000000 0.000000 0.141394 -0.924376 16.265104 -0.000000 0.000000 0.000000 -0.000000 0.000000 0.000000 0.000000 0.000000 0.000000 0.141394 -0.924376 16.265104 -0.000000 0.000000 0.000000 -0.000000 0.000000 0.000000 0.000000 0.000000 0.000000
27.540211 75.913116 265.848726 0.128473 0.958469 -16.272182 0.095173 0.384255 16.286913 -0.023739 0.304429 0.021133 1.229959 4.004730 -0.904850 0.000000 0.000000 0.000000 -0.519469 -0.729289 -0.688381 -1.845548 1.219586 0.633266 -3.722558 -2.912542 -7.387381 6.471899 -2.448363 5.184095 0.000000 0.000000 0.000000 0.000000 0.000000 0.000000 -0.304782 -1.604886 -0.041323 -0.000000 0.000000 0.000000 -0.000000 0.000000 0.000000 -0.000000 0.000000 0.000000 0.000000 0.000000 0.000000 0.000000 0.000000 0.000000 0.145245 -0.956071 16.272319 -0.000000 0.000000 0.000000 -0.000000 0.000000 0.000000 0.000000 0.000000 0.000000 0.145245 -0.956071 16.272319 -0.000000 0.000000 0.000000 -0.000000 0.000000 0.000000 0.000000 0.000000 0.000000
27.542280 75.915927 265.858174 0.136236 0.981148 -16.234324 0.086522 0.394209 16.249062 -0.026935 0.307869 0.021089 1.384132 4.231755 -0.963052 0.000000 0.000000 0.000000 -0.487627 -0.788660 -0.686540 -2.016390 1.393087 0.636993 -1.446055 -3.559088 -5.102981 4.069150 -2.009421 3.155184 0.000000 0.000000 0.000000 0.000000 0.000000 0.000000 -0.303626 -1.643111 -0.041538 -0.000000 0.000000 0.000000 -0.000000 0.000000 0.000000 -0.000000 0.000000 0.000000 0.000000 0.000000 0.000000 0.000000 0.000000 0.000000 0.143499 -0.980112 16.234385 -0.000000 0.000000 0.000000 -0.000000 0.000000 0.000000 0.000000 0.000000 0.000000 0.143499 -0.980112 16.234385 -0.000000 0.000000 0.000000 0.215503 0.338084 -0.723092 0.000000 0.000000 0.000000
27.543517 75.912220 265.859913 0.143489 0.999194 -16.175697 0.078147 0.402098 16.190391 -0.029702 0.310943 0.021008 1.511066 4.506777 -1.021595 0.000000 0.000000 0.000000 -0.469647 -0.829978 -0.686527 -2.312651 2.111409 0.749637 0.759406 -3.591891 -2.428507 1.579174 -0.060127 1.882524 0.000000 0.000000 0.000000 0.000000 0.000000 0.000000 -0.301924 -1.674339 -0.041635 -0.000000 0.000000 0.000000 -0.000000 0.000000 0.000000 -0.000000 0.000000 0.000000 0.000000 0.000000 0.000000 0.000000 0.000000 0.000000 0.140557 -0.999611 16.175672 -0.000000 0.000000 0.000000 -0.000000 0.000000 0.000000 0.000000 0.000000 0.000000 0.140557 -0.999611 16.175672 -0.000000 0.000000 0.000000 0.216392 0.339122 -0.726456 0.000000 0.000000 0.000000
